<svg width="583" height="1210" viewBox="0 0 583 1210" fill="none" xmlns="http://www.w3.org/2000/svg">
<path fill-rule="evenodd" clip-rule="evenodd" d="M20 560H148V1072H416V1184H92V1183.98C91.5013 1183.99 91.0012 1184 90.5 1184C51.5639 1184 20 1152.44 20 1113.5C20 1113.33 20.0006 1113.17 20.0017 1113H20V560Z" fill="white"/>
<rect x="18.5" y="563.5" width="7" height="127" fill="white" stroke="#353535" stroke-dasharray="5 5"/>
<circle cx="22" cy="691" r="8" fill="black"/>
<circle cx="22" cy="563" r="8" fill="black"/>
<rect x="18.5" y="691.5" width="7" height="127" fill="white" stroke="#353535" stroke-dasharray="5 5"/>
<circle cx="22" cy="819" r="8" fill="black"/>
<circle cx="22" cy="691" r="8" fill="black"/>
<rect x="18.5" y="819.5" width="7" height="127" fill="white" stroke="#353535" stroke-dasharray="5 5"/>
<circle cx="22" cy="947" r="8" fill="black"/>
<circle cx="22" cy="819" r="8" fill="black"/>
<mask id="path-11-inside-1_9_2007" fill="white">
<path d="M18 1076H26V1118H18V1076Z"/>
</mask>
<path d="M18 1076H26V1118H18V1076Z" fill="white"/>
<path d="M18 1076V1075.5H17.5V1076H18ZM26 1076H26.5V1075.5H26V1076ZM17.5 1076V1078.62H18.5V1076H17.5ZM17.5 1083.88V1089.12H18.5V1083.88H17.5ZM17.5 1094.38V1099.62H18.5V1094.38H17.5ZM17.5 1104.88V1110.12H18.5V1104.88H17.5ZM17.5 1115.38V1118H18.5V1115.38H17.5ZM26.5 1118V1115.38H25.5V1118H26.5ZM26.5 1110.12V1104.88H25.5V1110.12H26.5ZM26.5 1099.62V1094.38H25.5V1099.62H26.5ZM26.5 1089.12V1083.88H25.5V1089.12H26.5ZM26.5 1078.62V1076H25.5V1078.62H26.5ZM26 1075.5H24V1076.5H26V1075.5ZM20 1075.5H18V1076.5H20V1075.5ZM18 1076V1075H17V1076H18ZM26 1076H27V1075H26V1076ZM17 1076V1078.62H19V1076H17ZM17 1083.88V1089.12H19V1083.88H17ZM17 1094.38V1099.62H19V1094.38H17ZM17 1104.88V1110.12H19V1104.88H17ZM17 1115.38V1118H19V1115.38H17ZM27 1118V1115.38H25V1118H27ZM27 1110.12V1104.88H25V1110.12H27ZM27 1099.62V1094.38H25V1099.62H27ZM27 1089.12V1083.88H25V1089.12H27ZM27 1078.62V1076H25V1078.62H27ZM26 1075H24V1077H26V1075ZM20 1075H18V1077H20V1075Z" fill="black" mask="url(#path-11-inside-1_9_2007)"/>
<mask id="path-13-inside-2_9_2007" fill="white">
<path d="M131 1180L131 1188L89 1188L89 1180L131 1180Z"/>
</mask>
<path d="M131 1180L131 1188L89 1188L89 1180L131 1180Z" fill="white"/>
<path d="M131 1180L131.5 1180L131.5 1179.5L131 1179.5L131 1180ZM131 1188L131 1188.5L131.5 1188.5L131.5 1188L131 1188ZM131 1179.5L128.375 1179.5L128.375 1180.5L131 1180.5L131 1179.5ZM123.125 1179.5L117.875 1179.5L117.875 1180.5L123.125 1180.5L123.125 1179.5ZM112.625 1179.5L107.375 1179.5L107.375 1180.5L112.625 1180.5L112.625 1179.5ZM102.125 1179.5L96.875 1179.5L96.875 1180.5L102.125 1180.5L102.125 1179.5ZM91.625 1179.5L89 1179.5L89 1180.5L91.625 1180.5L91.625 1179.5ZM89 1188.5L91.625 1188.5L91.625 1187.5L89 1187.5L89 1188.5ZM96.875 1188.5L102.125 1188.5L102.125 1187.5L96.875 1187.5L96.875 1188.5ZM107.375 1188.5L112.625 1188.5L112.625 1187.5L107.375 1187.5L107.375 1188.5ZM117.875 1188.5L123.125 1188.5L123.125 1187.5L117.875 1187.5L117.875 1188.5ZM128.375 1188.5L131 1188.5L131 1187.5L128.375 1187.5L128.375 1188.5ZM131.5 1188L131.5 1186L130.5 1186L130.5 1188L131.5 1188ZM131.5 1182L131.5 1180L130.5 1180L130.5 1182L131.5 1182ZM131 1180L132 1180L132 1179L131 1179L131 1180ZM131 1188L131 1189L132 1189L132 1188L131 1188ZM131 1179L128.375 1179L128.375 1181L131 1181L131 1179ZM123.125 1179L117.875 1179L117.875 1181L123.125 1181L123.125 1179ZM112.625 1179L107.375 1179L107.375 1181L112.625 1181L112.625 1179ZM102.125 1179L96.875 1179L96.875 1181L102.125 1181L102.125 1179ZM91.625 1179L89 1179L89 1181L91.625 1181L91.625 1179ZM89 1189L91.625 1189L91.625 1187L89 1187L89 1189ZM96.875 1189L102.125 1189L102.125 1187L96.875 1187L96.875 1189ZM107.375 1189L112.625 1189L112.625 1187L107.375 1187L107.375 1189ZM117.875 1189L123.125 1189L123.125 1187L117.875 1187L117.875 1189ZM128.375 1189L131 1189L131 1187L128.375 1187L128.375 1189ZM132 1188L132 1186L130 1186L130 1188L132 1188ZM132 1182L132 1180L130 1180L130 1182L132 1182Z" fill="black" mask="url(#path-13-inside-2_9_2007)"/>
<path d="M25.5 1118C25.5 1149.5 50.5 1180.5 89.5 1180.5" stroke="black" stroke-dasharray="5 5"/>
<path d="M18.5 1118C18.5 1154 46.5 1187.5 89 1187.5" stroke="black" stroke-dasharray="5 5"/>
<mask id="path-17-inside-3_9_2007" fill="white">
<path d="M267 1180L267 1188L131 1188L131 1180L267 1180Z"/>
</mask>
<path d="M267 1180L267 1188L131 1188L131 1180L267 1180Z" fill="white"/>
<path d="M267 1179.5L264.571 1179.5L264.571 1180.5L267 1180.5L267 1179.5ZM259.714 1179.5L254.857 1179.5L254.857 1180.5L259.714 1180.5L259.714 1179.5ZM250 1179.5L245.143 1179.5L245.143 1180.5L250 1180.5L250 1179.5ZM240.286 1179.5L235.429 1179.5L235.429 1180.5L240.286 1180.5L240.286 1179.5ZM230.571 1179.5L225.714 1179.5L225.714 1180.5L230.571 1180.5L230.571 1179.5ZM220.857 1179.5L216 1179.5L216 1180.5L220.857 1180.5L220.857 1179.5ZM211.143 1179.5L206.286 1179.5L206.286 1180.5L211.143 1180.5L211.143 1179.5ZM201.429 1179.5L196.571 1179.5L196.571 1180.5L201.429 1180.5L201.429 1179.5ZM191.714 1179.5L186.857 1179.5L186.857 1180.5L191.714 1180.5L191.714 1179.5ZM182 1179.5L177.143 1179.5L177.143 1180.5L182 1180.5L182 1179.5ZM172.286 1179.5L167.429 1179.5L167.429 1180.5L172.286 1180.5L172.286 1179.5ZM162.571 1179.5L157.714 1179.5L157.714 1180.5L162.571 1180.5L162.571 1179.5ZM152.857 1179.5L148 1179.5L148 1180.5L152.857 1180.5L152.857 1179.5ZM143.143 1179.5L138.286 1179.5L138.286 1180.5L143.143 1180.5L143.143 1179.5ZM133.429 1179.5L131 1179.5L131 1180.5L133.429 1180.5L133.429 1179.5ZM131 1188.5L133.429 1188.5L133.429 1187.5L131 1187.5L131 1188.5ZM138.286 1188.5L143.143 1188.5L143.143 1187.5L138.286 1187.5L138.286 1188.5ZM148 1188.5L152.857 1188.5L152.857 1187.5L148 1187.5L148 1188.5ZM157.714 1188.5L162.571 1188.5L162.571 1187.5L157.714 1187.5L157.714 1188.5ZM167.429 1188.5L172.286 1188.5L172.286 1187.5L167.429 1187.5L167.429 1188.5ZM177.143 1188.5L182 1188.5L182 1187.5L177.143 1187.5L177.143 1188.5ZM186.857 1188.5L191.714 1188.5L191.714 1187.5L186.857 1187.5L186.857 1188.5ZM196.571 1188.5L201.429 1188.5L201.429 1187.5L196.571 1187.5L196.571 1188.5ZM206.286 1188.5L211.143 1188.5L211.143 1187.5L206.286 1187.5L206.286 1188.5ZM216 1188.5L220.857 1188.5L220.857 1187.5L216 1187.5L216 1188.5ZM225.714 1188.5L230.571 1188.5L230.571 1187.5L225.714 1187.5L225.714 1188.5ZM235.429 1188.5L240.286 1188.5L240.286 1187.5L235.429 1187.5L235.429 1188.5ZM245.143 1188.5L250 1188.5L250 1187.5L245.143 1187.5L245.143 1188.5ZM254.857 1188.5L259.714 1188.5L259.714 1187.5L254.857 1187.5L254.857 1188.5ZM264.571 1188.5L267 1188.5L267 1187.5L264.571 1187.5L264.571 1188.5ZM267 1179L264.571 1179L264.571 1181L267 1181L267 1179ZM259.714 1179L254.857 1179L254.857 1181L259.714 1181L259.714 1179ZM250 1179L245.143 1179L245.143 1181L250 1181L250 1179ZM240.286 1179L235.429 1179L235.429 1181L240.286 1181L240.286 1179ZM230.571 1179L225.714 1179L225.714 1181L230.571 1181L230.571 1179ZM220.857 1179L216 1179L216 1181L220.857 1181L220.857 1179ZM211.143 1179L206.286 1179L206.286 1181L211.143 1181L211.143 1179ZM201.429 1179L196.571 1179L196.571 1181L201.429 1181L201.429 1179ZM191.714 1179L186.857 1179L186.857 1181L191.714 1181L191.714 1179ZM182 1179L177.143 1179L177.143 1181L182 1181L182 1179ZM172.286 1179L167.429 1179L167.429 1181L172.286 1181L172.286 1179ZM162.571 1179L157.714 1179L157.714 1181L162.571 1181L162.571 1179ZM152.857 1179L148 1179L148 1181L152.857 1181L152.857 1179ZM143.143 1179L138.286 1179L138.286 1181L143.143 1181L143.143 1179ZM133.429 1179L131 1179L131 1181L133.429 1181L133.429 1179ZM131 1189L133.429 1189L133.429 1187L131 1187L131 1189ZM138.286 1189L143.143 1189L143.143 1187L138.286 1187L138.286 1189ZM148 1189L152.857 1189L152.857 1187L148 1187L148 1189ZM157.714 1189L162.571 1189L162.571 1187L157.714 1187L157.714 1189ZM167.429 1189L172.286 1189L172.286 1187L167.429 1187L167.429 1189ZM177.143 1189L182 1189L182 1187L177.143 1187L177.143 1189ZM186.857 1189L191.714 1189L191.714 1187L186.857 1187L186.857 1189ZM196.571 1189L201.429 1189L201.429 1187L196.571 1187L196.571 1189ZM206.286 1189L211.143 1189L211.143 1187L206.286 1187L206.286 1189ZM216 1189L220.857 1189L220.857 1187L216 1187L216 1189ZM225.714 1189L230.571 1189L230.571 1187L225.714 1187L225.714 1189ZM235.429 1189L240.286 1189L240.286 1187L235.429 1187L235.429 1189ZM245.143 1189L250 1189L250 1187L245.143 1187L245.143 1189ZM254.857 1189L259.714 1189L259.714 1187L254.857 1187L254.857 1189ZM264.571 1189L267 1189L267 1187L264.571 1187L264.571 1189Z" fill="#353535" mask="url(#path-17-inside-3_9_2007)"/>
<mask id="path-19-inside-4_9_2007" fill="white">
<path d="M416 1180L416 1188L281 1188L281 1180L416 1180Z"/>
</mask>
<path d="M416 1180L416 1188L281 1188L281 1180L416 1180Z" fill="white"/>
<path d="M416 1179.5L413.589 1179.5L413.589 1180.5L416 1180.5L416 1179.5ZM408.768 1179.5L403.946 1179.5L403.946 1180.5L408.768 1180.5L408.768 1179.5ZM399.125 1179.5L394.304 1179.5L394.304 1180.5L399.125 1180.5L399.125 1179.5ZM389.482 1179.5L384.661 1179.5L384.661 1180.5L389.482 1180.5L389.482 1179.5ZM379.839 1179.5L375.018 1179.5L375.018 1180.5L379.839 1180.5L379.839 1179.5ZM370.196 1179.5L365.375 1179.5L365.375 1180.5L370.196 1180.5L370.196 1179.5ZM360.554 1179.5L355.732 1179.5L355.732 1180.5L360.554 1180.5L360.554 1179.5ZM350.911 1179.5L346.089 1179.5L346.089 1180.5L350.911 1180.5L350.911 1179.5ZM341.268 1179.5L336.446 1179.5L336.446 1180.5L341.268 1180.5L341.268 1179.5ZM331.625 1179.5L326.804 1179.5L326.804 1180.5L331.625 1180.5L331.625 1179.5ZM321.982 1179.5L317.161 1179.5L317.161 1180.5L321.982 1180.5L321.982 1179.5ZM312.339 1179.5L307.518 1179.5L307.518 1180.5L312.339 1180.5L312.339 1179.5ZM302.696 1179.5L297.875 1179.5L297.875 1180.5L302.696 1180.5L302.696 1179.5ZM293.054 1179.5L288.232 1179.5L288.232 1180.5L293.054 1180.5L293.054 1179.5ZM283.411 1179.5L281 1179.5L281 1180.5L283.411 1180.5L283.411 1179.5ZM281 1188.5L283.411 1188.5L283.411 1187.5L281 1187.5L281 1188.5ZM288.232 1188.5L293.054 1188.5L293.054 1187.5L288.232 1187.5L288.232 1188.5ZM297.875 1188.5L302.696 1188.5L302.696 1187.5L297.875 1187.5L297.875 1188.5ZM307.518 1188.5L312.339 1188.5L312.339 1187.5L307.518 1187.5L307.518 1188.5ZM317.161 1188.5L321.982 1188.5L321.982 1187.5L317.161 1187.5L317.161 1188.5ZM326.804 1188.5L331.625 1188.5L331.625 1187.5L326.804 1187.5L326.804 1188.5ZM336.446 1188.5L341.268 1188.5L341.268 1187.5L336.446 1187.5L336.446 1188.5ZM346.089 1188.5L350.911 1188.5L350.911 1187.5L346.089 1187.5L346.089 1188.5ZM355.732 1188.5L360.554 1188.5L360.554 1187.5L355.732 1187.5L355.732 1188.5ZM365.375 1188.5L370.196 1188.5L370.196 1187.5L365.375 1187.5L365.375 1188.5ZM375.018 1188.5L379.839 1188.5L379.839 1187.5L375.018 1187.5L375.018 1188.5ZM384.661 1188.5L389.482 1188.5L389.482 1187.5L384.661 1187.5L384.661 1188.5ZM394.304 1188.5L399.125 1188.5L399.125 1187.5L394.304 1187.5L394.304 1188.5ZM403.946 1188.5L408.768 1188.5L408.768 1187.5L403.946 1187.5L403.946 1188.5ZM413.589 1188.5L416 1188.5L416 1187.5L413.589 1187.5L413.589 1188.5ZM416 1179L413.589 1179L413.589 1181L416 1181L416 1179ZM408.768 1179L403.946 1179L403.946 1181L408.768 1181L408.768 1179ZM399.125 1179L394.304 1179L394.304 1181L399.125 1181L399.125 1179ZM389.482 1179L384.661 1179L384.661 1181L389.482 1181L389.482 1179ZM379.839 1179L375.018 1179L375.018 1181L379.839 1181L379.839 1179ZM370.196 1179L365.375 1179L365.375 1181L370.196 1181L370.196 1179ZM360.554 1179L355.732 1179L355.732 1181L360.554 1181L360.554 1179ZM350.911 1179L346.089 1179L346.089 1181L350.911 1181L350.911 1179ZM341.268 1179L336.446 1179L336.446 1181L341.268 1181L341.268 1179ZM331.625 1179L326.804 1179L326.804 1181L331.625 1181L331.625 1179ZM321.982 1179L317.161 1179L317.161 1181L321.982 1181L321.982 1179ZM312.339 1179L307.518 1179L307.518 1181L312.339 1181L312.339 1179ZM302.696 1179L297.875 1179L297.875 1181L302.696 1181L302.696 1179ZM293.054 1179L288.232 1179L288.232 1181L293.054 1181L293.054 1179ZM283.411 1179L281 1179L281 1181L283.411 1181L283.411 1179ZM281 1189L283.411 1189L283.411 1187L281 1187L281 1189ZM288.232 1189L293.054 1189L293.054 1187L288.232 1187L288.232 1189ZM297.875 1189L302.696 1189L302.696 1187L297.875 1187L297.875 1189ZM307.518 1189L312.339 1189L312.339 1187L307.518 1187L307.518 1189ZM317.161 1189L321.982 1189L321.982 1187L317.161 1187L317.161 1189ZM326.804 1189L331.625 1189L331.625 1187L326.804 1187L326.804 1189ZM336.446 1189L341.268 1189L341.268 1187L336.446 1187L336.446 1189ZM346.089 1189L350.911 1189L350.911 1187L346.089 1187L346.089 1189ZM355.732 1189L360.554 1189L360.554 1187L355.732 1187L355.732 1189ZM365.375 1189L370.196 1189L370.196 1187L365.375 1187L365.375 1189ZM375.018 1189L379.839 1189L379.839 1187L375.018 1187L375.018 1189ZM384.661 1189L389.482 1189L389.482 1187L384.661 1187L384.661 1189ZM394.304 1189L399.125 1189L399.125 1187L394.304 1187L394.304 1189ZM403.946 1189L408.768 1189L408.768 1187L403.946 1187L403.946 1189ZM413.589 1189L416 1189L416 1187L413.589 1187L413.589 1189Z" fill="#353535" mask="url(#path-19-inside-4_9_2007)"/>
<circle cx="131" cy="1184" r="8" transform="rotate(90 131 1184)" fill="black"/>
<circle cx="274" cy="1184" r="8" transform="rotate(90 274 1184)" fill="black"/>
<rect x="18.5" y="947.5" width="7" height="127" fill="white" stroke="#353535" stroke-dasharray="5 5"/>
<circle cx="22" cy="1075" r="8" fill="black"/>
<circle cx="22" cy="947" r="8" fill="black"/>
<mask id="path-26-inside-5_9_2007" fill="white">
<path d="M412 214H540V1072H412V214Z"/>
</mask>
<path d="M412 214H540V1072H412V214Z" fill="white"/>
<path d="M540 214H544V210H540V214ZM412 218H540V210H412V218ZM536 214V1072H544V214H536Z" fill="black" mask="url(#path-26-inside-5_9_2007)"/>
<rect width="4" height="51" transform="translate(536 920)" fill="#F5F5F5"/>
<mask id="path-28-inside-6_9_2007" fill="white">
<path d="M536 920H540V971H536V920Z"/>
</mask>
<path d="M536 920H540V971H536V920Z" fill="white"/>
<path d="M539 920V971H541V920H539ZM537 971V920H535V971H537Z" fill="#D9D9D9" mask="url(#path-28-inside-6_9_2007)"/>
<line x1="412" y1="388" x2="469" y2="388" stroke="black" stroke-width="4"/>
<rect width="26" height="28" transform="matrix(1 0 0 -1 430 390)" fill="white"/>
<mask id="path-31-inside-7_9_2007" fill="white">
<path fill-rule="evenodd" clip-rule="evenodd" d="M430 387C430 373.193 441.193 362 455 362V387H430Z"/>
</mask>
<path fill-rule="evenodd" clip-rule="evenodd" d="M430 387C430 373.193 441.193 362 455 362V387H430Z" fill="white"/>
<path d="M430 387V388H429V387H430ZM455 362V361H456V362H455ZM455 387H456V388H455V387ZM429 387C429 372.641 440.641 361 455 361V363C441.745 363 431 373.745 431 387H429ZM456 362V387H454V362H456ZM455 388H430V386H455V388Z" fill="#D9D9D9" mask="url(#path-31-inside-7_9_2007)"/>
<rect width="26" height="3" transform="matrix(1 0 0 -1 430 390)" fill="white"/>
<rect width="2" height="26" transform="matrix(1 0 0 -1 454 388)" fill="#353535"/>
<rect x="414" y="1074" width="124" height="129" fill="white" stroke="black" stroke-width="4"/>
<rect x="534.5" y="1074.5" width="7" height="127" fill="white" stroke="#353535" stroke-dasharray="5 5"/>
<circle cx="538" cy="1202" r="8" fill="black"/>
<circle cx="538" cy="1074" r="8" fill="black"/>
<rect x="537.722" y="1198.5" width="7" height="123.444" transform="rotate(90 537.722 1198.5)" fill="white" stroke="#353535" stroke-dasharray="5 5"/>
<ellipse cx="413.778" cy="1202" rx="8" ry="7.77778" transform="rotate(90 413.778 1202)" fill="black"/>
<ellipse cx="538.222" cy="1202" rx="8" ry="7.77778" transform="rotate(90 538.222 1202)" fill="black"/>
<rect x="410.5" y="1074.5" width="7" height="127" fill="white" stroke="#353535" stroke-dasharray="5 5"/>
<circle cx="414" cy="1202" r="8" fill="black"/>
<circle cx="414" cy="1074" r="8" fill="black"/>
<mask id="path-45-inside-8_9_2007" fill="white">
<path fill-rule="evenodd" clip-rule="evenodd" d="M476 1075C476 1087.15 485.85 1097 498 1097V1075H476Z"/>
</mask>
<path fill-rule="evenodd" clip-rule="evenodd" d="M476 1075C476 1087.15 485.85 1097 498 1097V1075H476Z" fill="white"/>
<path d="M476 1075V1074H475V1075H476ZM498 1097V1098H499V1097H498ZM498 1075H499V1074H498V1075ZM475 1075C475 1087.7 485.297 1098 498 1098V1096C486.402 1096 477 1086.6 477 1075H475ZM499 1097V1075H497V1097H499ZM498 1074H476V1076H498V1074Z" fill="#D9D9D9" mask="url(#path-45-inside-8_9_2007)"/>
<rect x="476" y="1072" width="22" height="3" fill="white"/>
<rect x="496" y="1074" width="2" height="23" fill="#353535"/>
<mask id="path-49-inside-9_9_2007" fill="white">
<path fill-rule="evenodd" clip-rule="evenodd" d="M477 1075C477 1087.15 467.15 1097 455 1097V1075H477Z"/>
</mask>
<path fill-rule="evenodd" clip-rule="evenodd" d="M477 1075C477 1087.15 467.15 1097 455 1097V1075H477Z" fill="white"/>
<path d="M477 1075V1074H478V1075H477ZM455 1097V1098H454V1097H455ZM455 1075H454V1074H455V1075ZM478 1075C478 1087.7 467.703 1098 455 1098V1096C466.598 1096 476 1086.6 476 1075H478ZM454 1097V1075H456V1097H454ZM455 1074H477V1076H455V1074Z" fill="#D9D9D9" mask="url(#path-49-inside-9_9_2007)"/>
<rect width="22" height="3" transform="matrix(-1 0 0 1 477 1072)" fill="white"/>
<rect width="2" height="23" transform="matrix(-1 0 0 1 457 1074)" fill="#353535"/>
<rect x="146" y="562" width="268" height="512" fill="white" stroke="black" stroke-width="4"/>
<rect width="4" height="51" transform="translate(144 920)" fill="#F5F5F5"/>
<mask id="path-54-inside-10_9_2007" fill="white">
<path d="M144 920H148V971H144V920Z"/>
</mask>
<path d="M144 920H148V971H144V920Z" fill="white"/>
<path d="M147 920V971H149V920H147ZM145 971V920H143V971H145Z" fill="#D9D9D9" mask="url(#path-54-inside-10_9_2007)"/>
<rect width="4" height="51" transform="translate(144 662)" fill="#F5F5F5"/>
<mask id="path-56-inside-11_9_2007" fill="white">
<path d="M144 662H148V713H144V662Z"/>
</mask>
<path d="M144 662H148V713H144V662Z" fill="white"/>
<path d="M147 662V713H149V662H147ZM145 713V662H143V713H145Z" fill="#D9D9D9" mask="url(#path-56-inside-11_9_2007)"/>
<rect width="4" height="51" transform="translate(226 1072) rotate(90)" fill="#F5F5F5"/>
<mask id="path-58-inside-12_9_2007" fill="white">
<path d="M226 1072L226 1076L175 1076L175 1072L226 1072Z"/>
</mask>
<path d="M226 1072L226 1076L175 1076L175 1072L226 1072Z" fill="white"/>
<path d="M226 1075L175 1075L175 1077L226 1077L226 1075ZM175 1073L226 1073L226 1071L175 1071L175 1073Z" fill="#D9D9D9" mask="url(#path-58-inside-12_9_2007)"/>
<rect x="410.5" y="946.5" width="7" height="127" fill="white" stroke="#353535" stroke-dasharray="5 5"/>
<circle cx="414" cy="1074" r="8" fill="black"/>
<circle cx="414" cy="946" r="8" fill="black"/>
<rect x="410.5" y="690.5" width="7" height="127" fill="white" stroke="#353535" stroke-dasharray="5 5"/>
<circle cx="414" cy="818" r="8" fill="black"/>
<circle cx="414" cy="690" r="8" fill="black"/>
<rect x="410.5" y="818.5" width="7" height="127" fill="white" stroke="#353535" stroke-dasharray="5 5"/>
<circle cx="414" cy="946" r="8" fill="black"/>
<circle cx="414" cy="818" r="8" fill="black"/>
<rect x="410.5" y="562.5" width="7" height="127" fill="white" stroke="#353535" stroke-dasharray="5 5"/>
<circle cx="414" cy="690" r="8" fill="black"/>
<circle cx="414" cy="562" r="8" fill="black"/>
<rect width="26" height="28" transform="translate(148 805) rotate(90)" fill="white"/>
<mask id="path-72-inside-13_9_2007" fill="white">
<path fill-rule="evenodd" clip-rule="evenodd" d="M145 805C131.193 805 120 816.193 120 830L145 830L145 805Z"/>
</mask>
<path fill-rule="evenodd" clip-rule="evenodd" d="M145 805C131.193 805 120 816.193 120 830L145 830L145 805Z" fill="white"/>
<path d="M145 805L146 805L146 804L145 804L145 805ZM120 830L119 830L119 831L120 831L120 830ZM145 830L145 831L146 831L146 830L145 830ZM145 804C130.641 804 119 815.641 119 830L121 830C121 816.745 131.745 806 145 806L145 804ZM120 831L145 831L145 829L120 829L120 831ZM146 830L146 805L144 805L144 830L146 830Z" fill="#D9D9D9" mask="url(#path-72-inside-13_9_2007)"/>
<rect x="148" y="805" width="26" height="3" transform="rotate(90 148 805)" fill="white"/>
<rect x="146" y="829" width="2" height="26" transform="rotate(90 146 829)" fill="#353535"/>
<rect width="4" height="51" transform="translate(385 1072) rotate(90)" fill="#F5F5F5"/>
<mask id="path-76-inside-14_9_2007" fill="white">
<path d="M385 1072L385 1076L334 1076L334 1072L385 1072Z"/>
</mask>
<path d="M385 1072L385 1076L334 1076L334 1072L385 1072Z" fill="white"/>
<path d="M385 1075L334 1075L334 1077L385 1077L385 1075ZM334 1073L385 1073L385 1071L334 1071L334 1073Z" fill="#D9D9D9" mask="url(#path-76-inside-14_9_2007)"/>
<rect width="4" height="51" transform="translate(536 792)" fill="#F5F5F5"/>
<mask id="path-78-inside-15_9_2007" fill="white">
<path d="M536 792H540V843H536V792Z"/>
</mask>
<path d="M536 792H540V843H536V792Z" fill="white"/>
<path d="M539 792V843H541V792H539ZM537 843V792H535V843H537Z" fill="#D9D9D9" mask="url(#path-78-inside-15_9_2007)"/>
<rect width="145" height="178" transform="translate(3 386)" fill="#F5F5F5"/>
<rect x="5" y="388" width="141" height="174" fill="white" stroke="black" stroke-width="4"/>
<rect width="26" height="28" transform="matrix(1 0 0 -1 62 564)" fill="white"/>
<mask id="path-81-inside-16_9_2007" fill="white">
<path fill-rule="evenodd" clip-rule="evenodd" d="M62 561C62 547.193 73.1929 536 87 536V561H62Z"/>
</mask>
<path fill-rule="evenodd" clip-rule="evenodd" d="M62 561C62 547.193 73.1929 536 87 536V561H62Z" fill="white"/>
<path d="M62 561V562H61V561H62ZM87 536V535H88V536H87ZM87 561H88V562H87V561ZM61 561C61 546.641 72.6406 535 87 535V537C73.7452 537 63 547.745 63 561H61ZM88 536V561H86V536H88ZM87 562H62V560H87V562Z" fill="#D9D9D9" mask="url(#path-81-inside-16_9_2007)"/>
<rect width="26" height="3" transform="matrix(1 0 0 -1 62 564)" fill="white"/>
<rect width="2" height="26" transform="matrix(1 0 0 -1 86 562)" fill="#353535"/>
<rect width="4" height="51" transform="translate(3 412)" fill="#F5F5F5"/>
<mask id="path-85-inside-17_9_2007" fill="white">
<path d="M3 412H7V463H3V412Z"/>
</mask>
<path d="M3 412H7V463H3V412Z" fill="white"/>
<path d="M6 412V463H8V412H6ZM4 463V412H2V463H4Z" fill="#D9D9D9" mask="url(#path-85-inside-17_9_2007)"/>
<rect x="146" y="388" width="65" height="174" fill="white" stroke="black" stroke-width="4"/>
<rect width="26" height="28" transform="matrix(1.19249e-08 1 1 -1.19249e-08 144 529)" fill="white"/>
<mask id="path-88-inside-18_9_2007" fill="white">
<path fill-rule="evenodd" clip-rule="evenodd" d="M147 529C160.807 529 172 540.193 172 554L147 554L147 529Z"/>
</mask>
<path fill-rule="evenodd" clip-rule="evenodd" d="M147 529C160.807 529 172 540.193 172 554L147 554L147 529Z" fill="white"/>
<path d="M147 529L146 529L146 528L147 528L147 529ZM172 554L173 554L173 555L172 555L172 554ZM147 554L147 555L146 555L146 554L147 554ZM147 528C161.359 528 173 539.641 173 554L171 554C171 540.745 160.255 530 147 530L147 528ZM172 555L147 555L147 553L172 553L172 555ZM146 554L146 529L148 529L148 554L146 554Z" fill="#D9D9D9" mask="url(#path-88-inside-18_9_2007)"/>
<rect width="26" height="3" transform="matrix(1.19249e-08 1 1 -1.19249e-08 144 529)" fill="white"/>
<rect width="2" height="26" transform="matrix(1.19249e-08 1 1 -1.19249e-08 146 553)" fill="#353535"/>
<mask id="path-92-inside-19_9_2007" fill="white">
<path d="M468 409H536V600H468V409Z"/>
</mask>
<path d="M468 409H536V600H468V409Z" fill="white" fill-opacity="0.62"/>
<path d="M470 600V409H466V600H470Z" fill="black" mask="url(#path-92-inside-19_9_2007)"/>
<mask id="path-94-inside-20_9_2007" fill="white">
<path d="M470 592H536V600H470V592Z"/>
</mask>
<path d="M470 593H536V591H470V593Z" fill="black" mask="url(#path-94-inside-20_9_2007)"/>
<mask id="path-96-inside-21_9_2007" fill="white">
<path d="M470 584H536V592H470V584Z"/>
</mask>
<path d="M470 585H536V583H470V585Z" fill="black" mask="url(#path-96-inside-21_9_2007)"/>
<mask id="path-98-inside-22_9_2007" fill="white">
<path d="M470 576H536V584H470V576Z"/>
</mask>
<path d="M470 577H536V575H470V577Z" fill="black" mask="url(#path-98-inside-22_9_2007)"/>
<mask id="path-100-inside-23_9_2007" fill="white">
<path d="M470 568H536V576H470V568Z"/>
</mask>
<path d="M470 569H536V567H470V569Z" fill="black" mask="url(#path-100-inside-23_9_2007)"/>
<mask id="path-102-inside-24_9_2007" fill="white">
<path d="M470 560H536V568H470V560Z"/>
</mask>
<path d="M470 561H536V559H470V561Z" fill="black" mask="url(#path-102-inside-24_9_2007)"/>
<mask id="path-104-inside-25_9_2007" fill="white">
<path d="M470 552H536V560H470V552Z"/>
</mask>
<path d="M470 553H536V551H470V553Z" fill="black" mask="url(#path-104-inside-25_9_2007)"/>
<mask id="path-106-inside-26_9_2007" fill="white">
<path d="M470 544H536V552H470V544Z"/>
</mask>
<path d="M470 545H536V543H470V545Z" fill="black" mask="url(#path-106-inside-26_9_2007)"/>
<mask id="path-108-inside-27_9_2007" fill="white">
<path d="M470 536H536V544H470V536Z"/>
</mask>
<path d="M470 537H536V535H470V537Z" fill="black" mask="url(#path-108-inside-27_9_2007)"/>
<mask id="path-110-inside-28_9_2007" fill="white">
<path d="M470 528H536V536H470V528Z"/>
</mask>
<path d="M470 529H536V527H470V529Z" fill="black" mask="url(#path-110-inside-28_9_2007)"/>
<mask id="path-112-inside-29_9_2007" fill="white">
<path d="M470 520H536V528H470V520Z"/>
</mask>
<path d="M470 521H536V519H470V521Z" fill="black" mask="url(#path-112-inside-29_9_2007)"/>
<mask id="path-114-inside-30_9_2007" fill="white">
<path d="M470 512H536V520H470V512Z"/>
</mask>
<path d="M470 513H536V511H470V513Z" fill="black" mask="url(#path-114-inside-30_9_2007)"/>
<mask id="path-116-inside-31_9_2007" fill="white">
<path d="M470 504H536V512H470V504Z"/>
</mask>
<path d="M470 505H536V503H470V505Z" fill="black" mask="url(#path-116-inside-31_9_2007)"/>
<mask id="path-118-inside-32_9_2007" fill="white">
<path d="M470 496H536V504H470V496Z"/>
</mask>
<path d="M470 497H536V495H470V497Z" fill="black" mask="url(#path-118-inside-32_9_2007)"/>
<mask id="path-120-inside-33_9_2007" fill="white">
<path d="M470 488H536V496H470V488Z"/>
</mask>
<path d="M470 489H536V487H470V489Z" fill="black" mask="url(#path-120-inside-33_9_2007)"/>
<mask id="path-122-inside-34_9_2007" fill="white">
<path d="M470 480H536V488H470V480Z"/>
</mask>
<path d="M470 481H536V479H470V481Z" fill="black" mask="url(#path-122-inside-34_9_2007)"/>
<mask id="path-124-inside-35_9_2007" fill="white">
<path d="M470 472H536V480H470V472Z"/>
</mask>
<path d="M470 473H536V471H470V473Z" fill="black" mask="url(#path-124-inside-35_9_2007)"/>
<mask id="path-126-inside-36_9_2007" fill="white">
<path d="M470 464H536V472H470V464Z"/>
</mask>
<path d="M470 465H536V463H470V465Z" fill="black" mask="url(#path-126-inside-36_9_2007)"/>
<mask id="path-128-inside-37_9_2007" fill="white">
<path d="M470 456H536V464H470V456Z"/>
</mask>
<path d="M470 457H536V455H470V457Z" fill="black" mask="url(#path-128-inside-37_9_2007)"/>
<mask id="path-130-inside-38_9_2007" fill="white">
<path d="M470 448H536V456H470V448Z"/>
</mask>
<path d="M470 448H536V456H470V448Z" fill="white"/>
<path d="M470 449H536V447H470V449Z" fill="black" mask="url(#path-130-inside-38_9_2007)"/>
<mask id="path-132-inside-39_9_2007" fill="white">
<path d="M470 440H536V448H470V440Z"/>
</mask>
<path d="M470 440H536V448H470V440Z" fill="white"/>
<path d="M470 441H536V439H470V441Z" fill="black" mask="url(#path-132-inside-39_9_2007)"/>
<mask id="path-134-inside-40_9_2007" fill="white">
<path d="M470 432H536V440H470V432Z"/>
</mask>
<path d="M470 432H536V440H470V432Z" fill="white"/>
<path d="M470 433H536V431H470V433Z" fill="black" mask="url(#path-134-inside-40_9_2007)"/>
<mask id="path-136-inside-41_9_2007" fill="white">
<path d="M470 424H536V432H470V424Z"/>
</mask>
<path d="M470 424H536V432H470V424Z" fill="white"/>
<path d="M470 425H536V423H470V425Z" fill="black" mask="url(#path-136-inside-41_9_2007)"/>
<mask id="path-138-inside-42_9_2007" fill="white">
<path d="M470 416H536V424H470V416Z"/>
</mask>
<path d="M470 416H536V424H470V416Z" fill="white"/>
<path d="M470 417H536V415H470V417Z" fill="black" mask="url(#path-138-inside-42_9_2007)"/>
<rect x="470" y="410" width="66" height="6" fill="white"/>
<path d="M502.293 411.707C502.683 412.098 503.317 412.098 503.707 411.707L510.071 405.343C510.462 404.953 510.462 404.319 510.071 403.929C509.681 403.538 509.047 403.538 508.657 403.929L503 409.586L497.343 403.929C496.953 403.538 496.319 403.538 495.929 403.929C495.538 404.319 495.538 404.953 495.929 405.343L502.293 411.707ZM502 394V411H504V394H502Z" fill="black" fill-opacity="0.41"/>
<rect x="470" y="501" width="68" height="175" fill="white" stroke="black" stroke-width="4"/>
<rect width="26" height="28" transform="matrix(1.19249e-08 1 1 -1.19249e-08 468 638)" fill="white"/>
<mask id="path-143-inside-43_9_2007" fill="white">
<path fill-rule="evenodd" clip-rule="evenodd" d="M471 638C484.807 638 496 649.193 496 663L471 663L471 638Z"/>
</mask>
<path fill-rule="evenodd" clip-rule="evenodd" d="M471 638C484.807 638 496 649.193 496 663L471 663L471 638Z" fill="white"/>
<path d="M471 638L470 638L470 637L471 637L471 638ZM496 663L497 663L497 664L496 664L496 663ZM471 663L471 664L470 664L470 663L471 663ZM471 637C485.359 637 497 648.641 497 663L495 663C495 649.745 484.255 639 471 639L471 637ZM496 664L471 664L471 662L496 662L496 664ZM470 663L470 638L472 638L472 663L470 663Z" fill="#D9D9D9" mask="url(#path-143-inside-43_9_2007)"/>
<rect width="26" height="3" transform="matrix(1.19249e-08 1 1 -1.19249e-08 468 638)" fill="white"/>
<rect width="2" height="26" transform="matrix(1.19249e-08 1 1 -1.19249e-08 470 662)" fill="#353535"/>
<rect width="4" height="51" transform="translate(536 559)" fill="#F5F5F5"/>
<mask id="path-147-inside-44_9_2007" fill="white">
<path d="M536 559H540V610H536V559Z"/>
</mask>
<path d="M536 559H540V610H536V559Z" fill="white"/>
<path d="M539 559V610H541V559H539ZM537 610V559H535V610H537Z" fill="#D9D9D9" mask="url(#path-147-inside-44_9_2007)"/>
<rect x="211" y="388" width="203" height="174" fill="white" stroke="black" stroke-width="4"/>
<rect width="26" height="28" transform="translate(416 524) rotate(90)" fill="white"/>
<mask id="path-150-inside-45_9_2007" fill="white">
<path fill-rule="evenodd" clip-rule="evenodd" d="M413 524C399.193 524 388 535.193 388 549L413 549L413 524Z"/>
</mask>
<path fill-rule="evenodd" clip-rule="evenodd" d="M413 524C399.193 524 388 535.193 388 549L413 549L413 524Z" fill="white"/>
<path d="M413 524L414 524L414 523L413 523L413 524ZM388 549L387 549L387 550L388 550L388 549ZM413 549L413 550L414 550L414 549L413 549ZM413 523C398.641 523 387 534.641 387 549L389 549C389 535.745 399.745 525 413 525L413 523ZM388 550L413 550L413 548L388 548L388 550ZM414 549L414 524L412 524L412 549L414 549Z" fill="#D9D9D9" mask="url(#path-150-inside-45_9_2007)"/>
<rect x="416" y="524" width="26" height="3" transform="rotate(90 416 524)" fill="white"/>
<rect x="414" y="548" width="2" height="26" transform="rotate(90 414 548)" fill="#353535"/>
<rect width="4" height="51" transform="translate(3 481)" fill="#F5F5F5"/>
<mask id="path-154-inside-46_9_2007" fill="white">
<path d="M3 481H7V532H3V481Z"/>
</mask>
<path d="M3 481H7V532H3V481Z" fill="white"/>
<path d="M6 481V532H8V481H6ZM4 532V481H2V532H4Z" fill="#D9D9D9" mask="url(#path-154-inside-46_9_2007)"/>
<rect x="20.5" y="214.5" width="395" height="175" fill="#F5F5F5"/>
<rect x="20.5" y="214.5" width="395" height="175" stroke="black"/>
<mask id="path-157-inside-47_9_2007" fill="white">
<path d="M20 214H416V390H20V214Z"/>
</mask>
<path d="M20 214H416V390H20V214Z" fill="white"/>
<path d="M20 214V210H16V214H20ZM20 390H16V394H20V390ZM20 218H416V210H20V218ZM416 386H20V394H416V386ZM24 390V214H16V390H24Z" fill="black" mask="url(#path-157-inside-47_9_2007)"/>
<mask id="path-159-inside-48_9_2007" fill="white">
<path fill-rule="evenodd" clip-rule="evenodd" d="M100 214H20V390H361V214H189V349H100V214Z"/>
</mask>
<path fill-rule="evenodd" clip-rule="evenodd" d="M100 214H20V390H361V214H189V349H100V214Z" fill="white"/>
<path d="M20 214V210H16V214H20ZM100 214H104V210H100V214ZM20 390H16V394H20V390ZM361 390V394H365V390H361ZM361 214H365V210H361V214ZM189 214V210H185V214H189ZM189 349V353H193V349H189ZM100 349H96V353H100V349ZM20 218H100V210H20V218ZM24 390V214H16V390H24ZM361 386H20V394H361V386ZM357 214V390H365V214H357ZM189 218H361V210H189V218ZM185 214V349H193V214H185ZM189 345H100V353H189V345ZM104 349V214H96V349H104Z" fill="black" mask="url(#path-159-inside-48_9_2007)"/>
<mask id="path-161-inside-49_9_2007" fill="white">
<path fill-rule="evenodd" clip-rule="evenodd" d="M22 302C9.84974 302 -4.30546e-07 311.85 -9.61651e-07 324L22 324L22 302Z"/>
</mask>
<path fill-rule="evenodd" clip-rule="evenodd" d="M22 302C9.84974 302 -4.30546e-07 311.85 -9.61651e-07 324L22 324L22 302Z" fill="white"/>
<path d="M22 302L23 302L23 301L22 301L22 302ZM-9.61651e-07 324L-1 324L-1 325L-1.00536e-06 325L-9.61651e-07 324ZM22 324L22 325L23 325L23 324L22 324ZM22 301C9.29745 301 -1 311.297 -1 324L0.999999 324C1 312.402 10.402 303 22 303L22 301ZM-1.00536e-06 325L22 325L22 323L-9.17939e-07 323L-1.00536e-06 325ZM23 324L23 302L21 302L21 324L23 324Z" fill="#D9D9D9" mask="url(#path-161-inside-49_9_2007)"/>
<rect x="25" y="302" width="22" height="3" transform="rotate(90 25 302)" fill="white"/>
<rect x="23" y="322" width="2" height="23" transform="rotate(90 23 322)" fill="#353535"/>
<mask id="path-165-inside-50_9_2007" fill="white">
<path fill-rule="evenodd" clip-rule="evenodd" d="M22 303C9.84974 303 4.30546e-07 293.15 9.61651e-07 281L22 281L22 303Z"/>
</mask>
<path fill-rule="evenodd" clip-rule="evenodd" d="M22 303C9.84974 303 4.30546e-07 293.15 9.61651e-07 281L22 281L22 303Z" fill="white"/>
<path d="M22 303L23 303L23 304L22 304L22 303ZM9.61651e-07 281L-0.999999 281L-0.999999 280L1.00536e-06 280L9.61651e-07 281ZM22 281L22 280L23 280L23 281L22 281ZM22 304C9.29745 304 -1 293.703 -0.999999 281L1 281C1 292.598 10.402 302 22 302L22 304ZM1.00536e-06 280L22 280L22 282L9.17939e-07 282L1.00536e-06 280ZM23 281L23 303L21 303L21 281L23 281Z" fill="#D9D9D9" mask="url(#path-165-inside-50_9_2007)"/>
<rect width="22" height="3" transform="matrix(4.37114e-08 -1 -1 -4.37114e-08 25 303)" fill="white"/>
<rect width="2" height="23" transform="matrix(4.37114e-08 -1 -1 -4.37114e-08 23 283)" fill="#353535"/>
<rect width="26" height="28" transform="matrix(1 0 0 -1 329 390)" fill="white"/>
<mask id="path-169-inside-51_9_2007" fill="white">
<path fill-rule="evenodd" clip-rule="evenodd" d="M329 387C329 373.193 340.193 362 354 362V387H329Z"/>
</mask>
<path fill-rule="evenodd" clip-rule="evenodd" d="M329 387C329 373.193 340.193 362 354 362V387H329Z" fill="white"/>
<path d="M329 387V388H328V387H329ZM354 362V361H355V362H354ZM354 387H355V388H354V387ZM328 387C328 372.641 339.641 361 354 361V363C340.745 363 330 373.745 330 387H328ZM355 362V387H353V362H355ZM354 388H329V386H354V388Z" fill="#D9D9D9" mask="url(#path-169-inside-51_9_2007)"/>
<rect width="26" height="3" transform="matrix(1 0 0 -1 329 390)" fill="white"/>
<rect width="2" height="26" transform="matrix(1 0 0 -1 353 388)" fill="#353535"/>
<rect width="70" height="139" transform="translate(291 214)" fill="#F5F5F5"/>
<rect x="293" y="216" width="66" height="135" fill="white" stroke="black" stroke-width="4"/>
<rect width="26" height="28" transform="matrix(1 0 0 -1 329 353)" fill="white"/>
<mask id="path-174-inside-52_9_2007" fill="white">
<path fill-rule="evenodd" clip-rule="evenodd" d="M329 350C329 336.193 340.193 325 354 325V350H329Z"/>
</mask>
<path fill-rule="evenodd" clip-rule="evenodd" d="M329 350C329 336.193 340.193 325 354 325V350H329Z" fill="white"/>
<path d="M329 350V351H328V350H329ZM354 325V324H355V325H354ZM354 350H355V351H354V350ZM328 350C328 335.641 339.641 324 354 324V326C340.745 326 330 336.745 330 350H328ZM355 325V350H353V325H355ZM354 351H329V349H354V351Z" fill="#D9D9D9" mask="url(#path-174-inside-52_9_2007)"/>
<rect width="26" height="3" transform="matrix(1 0 0 -1 329 353)" fill="white"/>
<rect width="2" height="26" transform="matrix(1 0 0 -1 353 351)" fill="#353535"/>
<rect width="70" height="139" transform="translate(227 214)" fill="#F5F5F5"/>
<rect x="229" y="216" width="66" height="135" fill="white" stroke="black" stroke-width="4"/>
<rect width="26" height="28" transform="matrix(1 0 0 -1 250 353)" fill="white"/>
<mask id="path-179-inside-53_9_2007" fill="white">
<path fill-rule="evenodd" clip-rule="evenodd" d="M250 350C250 336.193 261.193 325 275 325V350H250Z"/>
</mask>
<path fill-rule="evenodd" clip-rule="evenodd" d="M250 350C250 336.193 261.193 325 275 325V350H250Z" fill="white"/>
<path d="M250 350V351H249V350H250ZM275 325V324H276V325H275ZM275 350H276V351H275V350ZM249 350C249 335.641 260.641 324 275 324V326C261.745 326 251 336.745 251 350H249ZM276 325V350H274V325H276ZM275 351H250V349H275V351Z" fill="#D9D9D9" mask="url(#path-179-inside-53_9_2007)"/>
<rect width="26" height="3" transform="matrix(1 0 0 -1 250 353)" fill="white"/>
<rect width="2" height="26" transform="matrix(1 0 0 -1 274 351)" fill="#353535"/>
<rect width="70" height="139" transform="translate(161 214)" fill="#F5F5F5"/>
<rect x="163" y="216" width="66" height="135" fill="white" stroke="black" stroke-width="4"/>
<rect width="26" height="28" transform="matrix(1 0 0 -1 183 353)" fill="white"/>
<mask id="path-184-inside-54_9_2007" fill="white">
<path fill-rule="evenodd" clip-rule="evenodd" d="M183 350C183 336.193 194.193 325 208 325V350H183Z"/>
</mask>
<path fill-rule="evenodd" clip-rule="evenodd" d="M183 350C183 336.193 194.193 325 208 325V350H183Z" fill="white"/>
<path d="M183 350V351H182V350H183ZM208 325V324H209V325H208ZM208 350H209V351H208V350ZM182 350C182 335.641 193.641 324 208 324V326C194.745 326 184 336.745 184 350H182ZM209 325V350H207V325H209ZM208 351H183V349H208V351Z" fill="#D9D9D9" mask="url(#path-184-inside-54_9_2007)"/>
<rect width="26" height="3" transform="matrix(1 0 0 -1 183 353)" fill="white"/>
<rect width="2" height="26" transform="matrix(1 0 0 -1 207 351)" fill="#353535"/>
<rect width="70" height="139" transform="translate(96 214)" fill="#F5F5F5"/>
<rect x="98" y="216" width="66" height="135" fill="white" stroke="black" stroke-width="4"/>
<rect width="26" height="28" transform="matrix(1 0 0 -1 118 353)" fill="white"/>
<mask id="path-189-inside-55_9_2007" fill="white">
<path fill-rule="evenodd" clip-rule="evenodd" d="M118 350C118 336.193 129.193 325 143 325V350H118Z"/>
</mask>
<path fill-rule="evenodd" clip-rule="evenodd" d="M118 350C118 336.193 129.193 325 143 325V350H118Z" fill="white"/>
<path d="M118 350V351H117V350H118ZM143 325V324H144V325H143ZM143 350H144V351H143V350ZM117 350C117 335.641 128.641 324 143 324V326C129.745 326 119 336.745 119 350H117ZM144 325V350H142V325H144ZM143 351H118V349H143V351Z" fill="#D9D9D9" mask="url(#path-189-inside-55_9_2007)"/>
<rect width="26" height="3" transform="matrix(1 0 0 -1 118 353)" fill="white"/>
<rect width="2" height="26" transform="matrix(1 0 0 -1 142 351)" fill="#353535"/>
<mask id="path-193-inside-56_9_2007" fill="white">
<path fill-rule="evenodd" clip-rule="evenodd" d="M540 159H468V214H409V311H468V390H540V311V214V159Z"/>
</mask>
<path fill-rule="evenodd" clip-rule="evenodd" d="M540 159H468V214H409V311H468V390H540V311V214V159Z" fill="white"/>
<path d="M468 159V155H464V159H468ZM540 159H544V155H540V159ZM468 214V218H472V214H468ZM409 214V210H405V214H409ZM409 311H405V315H409V311ZM468 311H472V307H468V311ZM468 390H464V394H468V390ZM540 390V394H544V390H540ZM468 163H540V155H468V163ZM472 214V159H464V214H472ZM409 218H468V210H409V218ZM413 311V214H405V311H413ZM468 307H409V315H468V307ZM472 390V311H464V390H472ZM540 386H468V394H540V386ZM536 311V390H544V311H536ZM536 214V311H544V214H536ZM536 159V214H544V159H536Z" fill="black" mask="url(#path-193-inside-56_9_2007)"/>
<rect width="4" height="51" transform="translate(536 233)" fill="#F5F5F5"/>
<mask id="path-195-inside-57_9_2007" fill="white">
<path d="M536 233H540V284H536V233Z"/>
</mask>
<path d="M536 233H540V284H536V233Z" fill="white"/>
<path d="M539 233V284H541V233H539ZM537 284V233H535V284H537Z" fill="#D9D9D9" mask="url(#path-195-inside-57_9_2007)"/>
<rect width="4" height="51" transform="translate(536 320)" fill="#F5F5F5"/>
<mask id="path-197-inside-58_9_2007" fill="white">
<path d="M536 320H540V371H536V320Z"/>
</mask>
<path d="M536 320H540V371H536V320Z" fill="white"/>
<path d="M539 320V371H541V320H539ZM537 371V320H535V371H537Z" fill="#D9D9D9" mask="url(#path-197-inside-58_9_2007)"/>
<rect width="26" height="28" transform="matrix(-1 0 0 -1 442 312)" fill="white"/>
<mask id="path-199-inside-59_9_2007" fill="white">
<path fill-rule="evenodd" clip-rule="evenodd" d="M442 309C442 295.193 430.807 284 417 284V309H442Z"/>
</mask>
<path fill-rule="evenodd" clip-rule="evenodd" d="M442 309C442 295.193 430.807 284 417 284V309H442Z" fill="white"/>
<path d="M442 309V310H443V309H442ZM417 284V283H416V284H417ZM417 309H416V310H417V309ZM443 309C443 294.641 431.359 283 417 283V285C430.255 285 441 295.745 441 309H443ZM416 284V309H418V284H416ZM417 310H442V308H417V310Z" fill="#D9D9D9" mask="url(#path-199-inside-59_9_2007)"/>
<rect x="442" y="312" width="26" height="3" transform="rotate(180 442 312)" fill="white"/>
<rect x="418" y="310" width="2" height="26" transform="rotate(180 418 310)" fill="#353535"/>
<mask id="path-203-inside-60_9_2007" fill="white">
<path fill-rule="evenodd" clip-rule="evenodd" d="M540 140.255C556.995 127.585 568 107.328 568 84.5C568 46.1162 536.884 15 498.5 15C476.123 15 456.217 25.575 443.505 42H184V218H540V140.255Z"/>
</mask>
<path fill-rule="evenodd" clip-rule="evenodd" d="M540 140.255C556.995 127.585 568 107.328 568 84.5C568 46.1162 536.884 15 498.5 15C476.123 15 456.217 25.575 443.505 42H184V218H540V140.255Z" fill="white"/>
<path d="M540 140.255L537.609 137.048L536 138.248V140.255H540ZM443.505 42V46H445.467L446.668 44.4482L443.505 42ZM184 42V38H180V42H184ZM184 218H180V222H184V218ZM540 218V222H544V218H540ZM564 84.5C564 106.011 553.635 125.1 537.609 137.048L542.391 143.462C560.354 130.069 572 108.644 572 84.5H564ZM498.5 19C534.675 19 564 48.3253 564 84.5H572C572 43.9071 539.093 11 498.5 11V19ZM446.668 44.4482C458.655 28.9599 477.413 19 498.5 19V11C474.833 11 453.778 22.1902 440.342 39.5518L446.668 44.4482ZM184 46H443.505V38H184V46ZM188 218V42H180V218H188ZM540 214H184V222H540V214ZM536 140.255V218H544V140.255H536Z" fill="black" mask="url(#path-203-inside-60_9_2007)"/>
<rect width="26" height="28" transform="matrix(1 0 0 -1 382 218)" fill="white"/>
<mask id="path-205-inside-61_9_2007" fill="white">
<path fill-rule="evenodd" clip-rule="evenodd" d="M382 215C382 201.193 393.193 190 407 190V215H382Z"/>
</mask>
<path fill-rule="evenodd" clip-rule="evenodd" d="M382 215C382 201.193 393.193 190 407 190V215H382Z" fill="white"/>
<path d="M382 215V216H381V215H382ZM407 190V189H408V190H407ZM407 215H408V216H407V215ZM381 215C381 200.641 392.641 189 407 189V191C393.745 191 383 201.745 383 215H381ZM408 190V215H406V190H408ZM407 216H382V214H407V216Z" fill="#D9D9D9" mask="url(#path-205-inside-61_9_2007)"/>
<rect width="26" height="3" transform="matrix(1 0 0 -1 382 218)" fill="white"/>
<rect width="2" height="26" transform="matrix(1 0 0 -1 406 216)" fill="#353535"/>
<line x1="444.414" y1="44.5858" x2="539.414" y2="139.586" stroke="black" stroke-width="4"/>
<rect width="26" height="28" transform="matrix(0.707107 0.707107 0.707107 -0.707107 484 86.799)" fill="white"/>
<mask id="path-210-inside-62_9_2007" fill="white">
<path fill-rule="evenodd" clip-rule="evenodd" d="M486.121 84.6777C495.884 74.9146 511.714 74.9146 521.477 84.6777L503.799 102.355L486.121 84.6777Z"/>
</mask>
<path fill-rule="evenodd" clip-rule="evenodd" d="M486.121 84.6777C495.884 74.9146 511.714 74.9146 521.477 84.6777L503.799 102.355L486.121 84.6777Z" fill="white"/>
<path d="M486.121 84.6777L485.414 85.3848L484.707 84.6777L485.414 83.9706L486.121 84.6777ZM521.477 84.6777L522.184 83.9706L522.891 84.6777L522.184 85.3848L521.477 84.6777ZM503.799 102.355L504.506 103.062L503.799 103.77L503.092 103.062L503.799 102.355ZM485.414 83.9706C495.568 73.8169 512.03 73.8169 522.184 83.9706L520.77 85.3848C511.397 76.0122 496.201 76.0122 486.828 85.3848L485.414 83.9706ZM522.184 85.3848L504.506 103.062L503.092 101.648L520.77 83.9706L522.184 85.3848ZM503.092 103.062L485.414 85.3848L486.828 83.9706L504.506 101.648L503.092 103.062Z" fill="#D9D9D9" mask="url(#path-210-inside-62_9_2007)"/>
<rect width="26" height="3" transform="matrix(0.707107 0.707107 0.707107 -0.707107 484 86.799)" fill="white"/>
<rect width="2" height="26" transform="matrix(0.707107 0.707107 0.707107 -0.707107 502.385 102.355)" fill="#353535"/>
<rect width="4" height="51" transform="translate(290 42) rotate(90)" fill="#F5F5F5"/>
<mask id="path-214-inside-63_9_2007" fill="white">
<path d="M290 42L290 46L239 46L239 42L290 42Z"/>
</mask>
<path d="M290 42L290 46L239 46L239 42L290 42Z" fill="white"/>
<path d="M290 45L239 45L239 47L290 47L290 45ZM239 43L290 43L290 41L239 41L239 43Z" fill="#D9D9D9" mask="url(#path-214-inside-63_9_2007)"/>
<rect width="4" height="51" transform="translate(396 42) rotate(90)" fill="#F5F5F5"/>
<mask id="path-216-inside-64_9_2007" fill="white">
<path d="M396 42L396 46L345 46L345 42L396 42Z"/>
</mask>
<path d="M396 42L396 46L345 46L345 42L396 42Z" fill="white"/>
<path d="M396 45L345 45L345 47L396 47L396 45ZM345 43L396 43L396 41L345 41L345 43Z" fill="#D9D9D9" mask="url(#path-216-inside-64_9_2007)"/>
<rect width="4" height="51" transform="translate(536 152)" fill="#F5F5F5"/>
<mask id="path-218-inside-65_9_2007" fill="white">
<path d="M536 152H540V203H536V152Z"/>
</mask>
<path d="M536 152H540V203H536V152Z" fill="white"/>
<path d="M539 152V203H541V152H539ZM537 203V152H535V203H537Z" fill="#D9D9D9" mask="url(#path-218-inside-65_9_2007)"/>
<rect width="169" height="176" transform="translate(20 42)" fill="#F5F5F5"/>
<rect x="22" y="44" width="165" height="172" fill="white" stroke="black" stroke-width="4"/>
<rect width="4" height="51" transform="translate(20 105)" fill="#F5F5F5"/>
<mask id="path-221-inside-66_9_2007" fill="white">
<path d="M20 105H24V156H20V105Z"/>
</mask>
<path d="M20 105H24V156H20V105Z" fill="white"/>
<path d="M23 105V156H25V105H23ZM21 156V105H19V156H21Z" fill="#D9D9D9" mask="url(#path-221-inside-66_9_2007)"/>
<rect width="26" height="28" transform="translate(189 183) rotate(90)" fill="white"/>
<mask id="path-223-inside-67_9_2007" fill="white">
<path fill-rule="evenodd" clip-rule="evenodd" d="M186 183C172.193 183 161 194.193 161 208L186 208L186 183Z"/>
</mask>
<path fill-rule="evenodd" clip-rule="evenodd" d="M186 183C172.193 183 161 194.193 161 208L186 208L186 183Z" fill="white"/>
<path d="M186 183L187 183L187 182L186 182L186 183ZM161 208L160 208L160 209L161 209L161 208ZM186 208L186 209L187 209L187 208L186 208ZM186 182C171.641 182 160 193.641 160 208L162 208C162 194.745 172.745 184 186 184L186 182ZM161 209L186 209L186 207L161 207L161 209ZM187 208L187 183L185 183L185 208L187 208Z" fill="#D9D9D9" mask="url(#path-223-inside-67_9_2007)"/>
<rect x="189" y="183" width="26" height="3" transform="rotate(90 189 183)" fill="white"/>
<rect x="187" y="207" width="2" height="26" transform="rotate(90 187 207)" fill="#353535"/>
<rect x="252.5" y="1051.5" width="56" height="22" fill="white" stroke="black"/>
<circle cx="131" cy="1184" r="8" fill="black"/>
</svg>
