<svg width="129" height="129" viewBox="0 0 129 129" fill="none" xmlns="http://www.w3.org/2000/svg">
<mask id="path-1-inside-1_33_479" fill="white">
<path fill-rule="evenodd" clip-rule="evenodd" d="M128.923 71.9613C128.923 95.1414 117.963 115.762 100.942 128.923L0 27.9804C13.1611 10.9599 33.7814 0 56.9615 0C96.7047 0 128.923 32.2182 128.923 71.9613Z"/>
</mask>
<path fill-rule="evenodd" clip-rule="evenodd" d="M128.923 71.9613C128.923 95.1414 117.963 115.762 100.942 128.923L0 27.9804C13.1611 10.9599 33.7814 0 56.9615 0C96.7047 0 128.923 32.2182 128.923 71.9613Z" fill="#717171"/>
<path d="M100.942 128.923L98.114 131.751L100.604 134.241L103.389 132.087L100.942 128.923ZM0 27.9804L-3.16434 25.5336L-5.31821 28.3191L-2.82843 30.8089L0 27.9804ZM103.389 132.087C121.347 118.201 132.923 96.4322 132.923 71.9613H124.923C124.923 93.8507 114.579 113.322 98.4956 125.759L103.389 132.087ZM-2.82843 30.8089L98.114 131.751L103.771 126.094L2.82843 25.152L-2.82843 30.8089ZM56.9615 -4C32.4907 -4 10.7216 7.57567 -3.16434 25.5336L3.16434 30.4273C15.6006 14.3442 35.0721 4 56.9615 4V-4ZM132.923 71.9613C132.923 30.009 98.9138 -4 56.9615 -4V4C94.4955 4 124.923 34.4273 124.923 71.9613H132.923Z" fill="#717171" mask="url(#path-1-inside-1_33_479)"/>
</svg>
